<svg xmlns="http://www.w3.org/2000/svg" width="16" height="16" viewBox="0 0 16 16">
  <g id="Group_354" data-name="Group 354" transform="translate(-1864 -429)">
    <g id="SVGRepo_iconCarrier" transform="translate(1861.594 426.5)">
      <path id="Path_470" data-name="Path 470" d="M14.875,15.375h1.031a2.411,2.411,0,0,0,.661-.043,1.218,1.218,0,0,0,.744-1.244,4.059,4.059,0,0,0-.175-.768,4.782,4.782,0,0,0-.2-.645,1.567,1.567,0,0,0-1.069-.928,2.911,2.911,0,0,0-.573-.028l-2.041.028m-.658-1.491a2.437,2.437,0,1,0,.429-4.547m-1.4,1.541A3.25,3.25,0,1,1,8.375,4,3.25,3.25,0,0,1,11.625,7.25ZM6.2,12.125h4.359a3.884,3.884,0,0,1,.763.037A2.089,2.089,0,0,1,12.743,13.4a6.351,6.351,0,0,1,.271.86,5.414,5.414,0,0,1,.234,1.024,1.625,1.625,0,0,1-.993,1.659,3.212,3.212,0,0,1-.881.057h-6a3.213,3.213,0,0,1-.881-.057A1.624,1.624,0,0,1,3.5,15.284a5.411,5.411,0,0,1,.234-1.024,6.358,6.358,0,0,1,.271-.86,2.089,2.089,0,0,1,1.426-1.237A3.884,3.884,0,0,1,6.2,12.125Z" fill="none" stroke="currentColor" stroke-linecap="round" stroke-linejoin="round" stroke-width="1"/>
    </g>
  </g>
</svg>
