<svg xmlns="http://www.w3.org/2000/svg" width="16" height="16" viewBox="0 0 16 16">
  <g id="Group_354" data-name="Group 354" transform="translate(-1864 -429)">
    <g id="briefcase-svgrepo-com" transform="translate(1853 419)">
      <path id="Path_11" data-name="Path 11" d="M22.746,13.675v-1.39A1.267,1.267,0,0,0,21.493,11H15.977a1.265,1.265,0,0,0-1.253,1.286v1.39H11V25.415H26.908V13.675Zm-7.415-1.39a.65.65,0,0,1,.643-.659H21.49a.65.65,0,0,1,.643.659v1.39h-6.8Zm10.934,2.049v3.857H24.707v-1.6H22.136v1.6H15.772v-1.6H13.2v1.6H11.643V14.334ZM24.1,17.253v2.4H22.778v-2.4Zm-8.938,0v2.4H13.844v-2.4Zm-3.519,7.5V18.85H13.2v1.458h2.571V18.85h6.363v1.458h2.571V18.85h1.558v5.905Z" transform="translate(0 0)" fill="currentColor"/>
    </g>
  </g>
</svg>
