<svg xmlns="http://www.w3.org/2000/svg" width="16" height="16" viewBox="0 0 16 16">
  <g id="Group_367" data-name="Group 367" transform="translate(-1864 -429)">
    <g id="SVGRepo_iconCarrier" transform="translate(1843.267 430)">
      <g id="Group_370" data-name="Group 370" transform="translate(22.503)">
        <path id="Path_260" data-name="Path 260" d="M34.962,9.346h-1.3V5.833a4.062,4.062,0,0,0-2.831-3.866A2.028,2.028,0,0,0,28.809,0h-.034a2.028,2.028,0,0,0-2.023,1.932,4.062,4.062,0,0,0-2.951,3.9V9.346H22.5v3.331h4.192a2.064,2.064,0,0,0,4.075,0h4.192V9.346ZM28.775.652h.034a1.376,1.376,0,0,1,1.358,1.166,4.071,4.071,0,0,0-.558-.039H27.855a4.076,4.076,0,0,0-.436.024A1.376,1.376,0,0,1,28.775.652Zm-.042,13.111a1.414,1.414,0,0,1-1.374-1.086h2.747A1.414,1.414,0,0,1,28.733,13.763Zm5.578-1.738H23.155V10h1.3V5.833a3.407,3.407,0,0,1,3.4-3.4H29.61a3.407,3.407,0,0,1,3.4,3.4V10h1.3Z" transform="translate(-22.503)" fill="currentColor"/>
      </g>
    </g>
  </g>
</svg>
