<svg id="Group_366" data-name="Group 366" xmlns="http://www.w3.org/2000/svg" width="14.96" height="14.96" viewBox="0 0 14.96 14.96">
  <path id="Path_258" data-name="Path 258" d="M2.891.16A2.734,2.734,0,0,0,.16,2.891V6.542a.356.356,0,0,0,.712,0V2.891A2.021,2.021,0,0,1,2.891.872h9.5a2.021,2.021,0,0,1,2.018,2.018V4.2a.356.356,0,0,0,.712,0V2.891A2.734,2.734,0,0,0,12.389.16ZM12.983,5.5a2.137,2.137,0,1,0,0,4.274h1.781a.356.356,0,0,0,.356-.356V5.859a.356.356,0,0,0-.356-.356ZM4.672,6.1a4.512,4.512,0,1,0,4.512,4.512A4.517,4.517,0,0,0,4.672,6.1Zm8.311.119h1.425v2.85H12.983a1.425,1.425,0,1,1,0-2.85Zm-8.311.594a3.8,3.8,0,1,1-3.8,3.8A3.8,3.8,0,0,1,4.672,6.809ZM6.941,9.184a.354.354,0,0,0-.256.095L4.373,11.425l-1-.956a.356.356,0,0,0-.493.514l1.242,1.188a.356.356,0,0,0,.488,0L7.17,9.8a.356.356,0,0,0-.229-.617Zm7.823,1.543a.356.356,0,0,0-.356.356v1.306a2.021,2.021,0,0,1-2.018,2.018H8.738a.356.356,0,0,0,0,.712h3.651a2.734,2.734,0,0,0,2.731-2.731V11.083A.356.356,0,0,0,14.764,10.727Z" transform="translate(-0.16 -0.16)" fill="currentColor"/>
</svg>
