<svg xmlns="http://www.w3.org/2000/svg" width="36" height="36" viewBox="0 0 36 36">
  <g id="Group_867" data-name="Group 867" transform="translate(-1864 -429)">
    <rect id="Rectangle_76" data-name="Rectangle 76" width="36" height="36" transform="translate(1864 429)" fill="rgba(255,255,255,0)"/>
    <g id="Group_369" data-name="Group 369" transform="translate(1865.785 431.25)">
      <path id="Path_259" data-name="Path 259" d="M11.324,2.5A5.272,5.272,0,0,0,6.88,4.94c.13-.008.26-.008.39-.008H25.917A6.083,6.083,0,0,1,32,11.013V23.985c0,.13,0,.26-.008.39a5.272,5.272,0,0,0,2.44-4.443V11.013A8.522,8.522,0,0,0,25.917,2.5ZM7.27,6.554A5.289,5.289,0,0,0,2,11.824V23.985a5.289,5.289,0,0,0,5.27,5.27h.405v3.677a2.072,2.072,0,0,0,3.219,1.64l7.311-5.317h6.9a5.289,5.289,0,0,0,5.27-5.27V11.824a5.289,5.289,0,0,0-5.27-5.27Zm0,2.432H25.107a2.82,2.82,0,0,1,2.838,2.838V23.985a2.82,2.82,0,0,1-2.838,2.838h-7.3a1.217,1.217,0,0,0-.716.233l-6.986,5.082v-4.1a1.216,1.216,0,0,0-1.216-1.216H7.27a2.82,2.82,0,0,1-2.838-2.838V11.824a2.915,2.915,0,0,1,.057-.576A2.817,2.817,0,0,1,7.27,8.986Z" transform="translate(-2 -2.5)" fill="#33a0e1"/>
    </g>
  </g>
</svg>
