<svg xmlns="http://www.w3.org/2000/svg" width="37.5" height="37.5" viewBox="0 0 37.5 37.5">
  <g id="Group_754" data-name="Group 754" transform="translate(-1315 -159)">
    <path id="Path_415" data-name="Path 415" d="M26.375,5.75V18.875H7.944L6.838,19.981,5.75,21.069V5.75H26.375M28.25,2H3.875A1.881,1.881,0,0,0,2,3.875v26.25l7.5-7.5H28.25a1.881,1.881,0,0,0,1.875-1.875V3.875A1.881,1.881,0,0,0,28.25,2Zm9.375,7.5h-3.75V26.375H9.5v3.75A1.881,1.881,0,0,0,11.375,32H32l7.5,7.5V11.375A1.881,1.881,0,0,0,37.625,9.5Z" transform="translate(1313 157)" fill="#d8c377"/>
  </g>
</svg>
