<svg xmlns="http://www.w3.org/2000/svg" width="47" height="46" viewBox="0 0 47 46">
  <g id="Group_618" data-name="Group 618" transform="translate(-1315 -155)">
    <g id="Group_393" data-name="Group 393" transform="translate(-549 -274)">
      <rect id="Rectangle_76" data-name="Rectangle 76" width="38" height="38" transform="translate(1864 429)" fill="#fff"/>
      <g id="briefcase-svgrepo-com" transform="translate(1864 431.375)">
        <path id="Path_11" data-name="Path 11" d="M38.9,17.354v-3.3A3.01,3.01,0,0,0,35.922,11h-13.1a3.005,3.005,0,0,0-2.976,3.054v3.3H11V45.236H48.783V17.354Zm-17.612-3.3a1.544,1.544,0,0,1,1.527-1.565h13.1a1.543,1.543,0,0,1,1.527,1.565v3.3H21.286Zm25.97,4.866V28.08h-3.7V24.286H37.448V28.08H22.335V24.286H16.228V28.08h-3.7V18.919Zm-5.143,6.932v5.691H38.975V25.851Zm-21.228,0v5.691H17.755V25.851Zm-8.359,17.82V29.645h3.7v3.462h6.107V29.645H37.448v3.462h6.107V29.645h3.7V43.671Z" transform="translate(-11 -11)" fill="#0c2639"/>
      </g>
    </g>
    <g id="Group_617" data-name="Group 617">
      <g id="Group_405" data-name="Group 405" transform="translate(1343 182)">
        <rect id="Rectangle_85" data-name="Rectangle 85" width="18" height="18" opacity="0"/>
        <g id="Group_400" data-name="Group 400" transform="translate(2.051 2.051)">
          <circle id="Ellipse_3123" data-name="Ellipse 3123" cx="8" cy="8" r="8" transform="translate(-1.051 -1.051)" fill="#fff"/>
          <g id="Ellipse_3124" data-name="Ellipse 3124" transform="translate(-0.051 -0.051)" fill="#fff" stroke="#0c2639" stroke-width="1">
            <circle cx="7" cy="7" r="7" stroke="none"/>
            <circle cx="7" cy="7" r="6.5" fill="none"/>
          </g>
        </g>
        <g id="Group_403" data-name="Group 403">
          <path id="Path_337" data-name="Path 337" d="M19,0V19H0Z" opacity="0"/>
        </g>
      </g>
      <circle id="Ellipse_3125" data-name="Ellipse 3125" cx="4" cy="4" r="4" transform="translate(1348 187)" fill="#40beff"/>
    </g>
  </g>
</svg>
