<svg xmlns="http://www.w3.org/2000/svg" width="38" height="38" viewBox="0 0 38 38">
  <g id="Group_905" data-name="Group 905" transform="translate(-207 -3)">
    <g id="istockphoto-471247592-612x612" transform="translate(207 3)" fill="#fff" stroke="#f96363" stroke-width="1">
      <circle cx="19" cy="19" r="19" stroke="none"/>
      <circle cx="19" cy="19" r="18.5" fill="none"/>
    </g>
    <g id="Group_616" data-name="Group 616" transform="translate(217.945 14.281)">
      <path id="Path_383" data-name="Path 383" d="M14.1,1.007A1.007,1.007,0,0,1,15.1,2.014v8.055A1.007,1.007,0,0,1,14.1,11.076H11.579a2.014,2.014,0,0,0-1.611.806L8.055,14.432,6.142,11.882a2.014,2.014,0,0,0-1.611-.806H2.014a1.007,1.007,0,0,1-1.007-1.007V2.014A1.007,1.007,0,0,1,2.014,1.007ZM2.014,0A2.014,2.014,0,0,0,0,2.014v8.055a2.014,2.014,0,0,0,2.014,2.014H4.531a1.007,1.007,0,0,1,.806.4L7.25,15.036a1.007,1.007,0,0,0,1.611,0l1.913-2.551a1.007,1.007,0,0,1,.806-.4H14.1a2.014,2.014,0,0,0,2.014-2.014V2.014A2.014,2.014,0,0,0,14.1,0Z" fill="#f96363"/>
      <path id="Path_384" data-name="Path 384" d="M3,3.5A.5.5,0,0,1,3.5,3h9.062a.5.5,0,0,1,0,1.007H3.5A.5.5,0,0,1,3,3.5ZM3,6.021a.5.5,0,0,1,.5-.5h9.062a.5.5,0,0,1,0,1.007H3.5A.5.5,0,0,1,3,6.021ZM3,8.538a.5.5,0,0,1,.5-.5H8.538a.5.5,0,1,1,0,1.007H3.5A.5.5,0,0,1,3,8.538Z" transform="translate(0.021 0.021)" fill="#f96363"/>
    </g>
  </g>
</svg>
