<svg xmlns="http://www.w3.org/2000/svg" width="38" height="38" viewBox="0 0 38 38">
  <g id="Group_903" data-name="Group 903" transform="translate(-207 -4)">
    <g id="istockphoto-471247592-612x612" transform="translate(207 4)" fill="#fff" stroke="#03d481" stroke-width="1">
      <circle cx="19" cy="19" r="19" stroke="none"/>
      <circle cx="19" cy="19" r="18.5" fill="none"/>
    </g>
    <g id="SVGRepo_iconCarrier" transform="translate(218 15.817)">
      <path id="Path_359" data-name="Path 359" d="M4.827,7.138l.445.227Zm.441,11.594.354.354h0Zm12.594-2.559-.227-.446Zm1.311-1.311-.445-.227Zm0-7.724-.445.227h0ZM17.862,5.827l.227-.445h0Zm-11.724,0,.227.445ZM7.207,16.793l.354.354ZM5,10.3c0-.848,0-1.455.039-1.93a2.631,2.631,0,0,1,.233-1.005l-.891-.454a3.6,3.6,0,0,0-.339,1.378C4,8.814,4,9.468,4,10.3Zm0,1.2V10.3H4v1.2Zm-1,0v5H5v-5Zm0,5v1.914H5V16.5Zm0,1.914a.95.95,0,0,0,1.622.672l-.707-.707a.059.059,0,0,1,.029-.013.042.042,0,0,1,.046.019A.059.059,0,0,1,5,18.414Zm1.622.672,1.939-1.939-.707-.707L4.915,18.378ZM14.7,16H7.914v1H14.7Zm2.935-.273a2.632,2.632,0,0,1-1.005.233C16.154,16,15.548,16,14.7,16v1c.832,0,1.486,0,2.011-.042a3.6,3.6,0,0,0,1.378-.339Zm1.093-1.092a2.5,2.5,0,0,1-1.093,1.092l.454.891a3.5,3.5,0,0,0,1.529-1.53ZM19,11.7c0,.848,0,1.455-.039,1.93a2.632,2.632,0,0,1-.233,1.005l.891.454a3.6,3.6,0,0,0,.339-1.378C20,13.186,20,12.532,20,11.7Zm0-1.4v1.4h1V10.3Zm-.272-2.935a2.632,2.632,0,0,1,.233,1.005C19,8.845,19,9.452,19,10.3h1c0-.832,0-1.486-.042-2.011a3.6,3.6,0,0,0-.339-1.378ZM17.635,6.272a2.5,2.5,0,0,1,1.093,1.093l.891-.454a3.5,3.5,0,0,0-1.529-1.53ZM14.7,6c.848,0,1.454,0,1.93.039a2.632,2.632,0,0,1,1.005.233l.454-.891a3.6,3.6,0,0,0-1.378-.339C16.186,5,15.532,5,14.7,5ZM9.3,6h5.4V5H9.3Zm-2.935.272A2.631,2.631,0,0,1,7.37,6.039C7.845,6,8.452,6,9.3,6V5c-.832,0-1.486,0-2.011.043a3.6,3.6,0,0,0-1.378.339ZM5.272,7.365A2.5,2.5,0,0,1,6.365,6.272l-.454-.891a3.5,3.5,0,0,0-1.53,1.53Zm2.288,9.781A.5.5,0,0,1,7.914,17V16a1.5,1.5,0,0,0-1.061.439Z" transform="translate(-4 -5)" fill="#03d481"/>
      <path id="Path_360" data-name="Path 360" d="M8.5,9.5h7" transform="translate(-4 -5)" fill="none" stroke="#03d481" stroke-linecap="round" stroke-linejoin="round" stroke-width="1"/>
      <path id="Path_361" data-name="Path 361" d="M8.5,12.5h5" transform="translate(-4 -5)" fill="none" stroke="#03d481" stroke-linecap="round" stroke-linejoin="round" stroke-width="1"/>
    </g>
  </g>
</svg>
