<svg xmlns="http://www.w3.org/2000/svg" width="38" height="38" viewBox="0 0 38 38">
  <g id="Group_904" data-name="Group 904" transform="translate(-207 -4)">
    <g id="istockphoto-471247592-612x612" transform="translate(207 4)" fill="#fff" stroke="#a4a1fb" stroke-width="1">
      <circle cx="19" cy="19" r="19" stroke="none"/>
      <circle cx="19" cy="19" r="18.5" fill="none"/>
    </g>
    <g id="Receipt" transform="translate(217.802 12.698)">
      <path id="Path_364" data-name="Path 364" d="M106.478,68.6a.4.4,0,0,1-.28-.116l-1.28-1.28-1.28,1.28a.4.4,0,0,1-.56,0L101.8,67.2l-1.28,1.28a.4.4,0,0,1-.56,0l-1.28-1.28-1.28,1.28a.4.4,0,0,1-.56,0l-1.28-1.28-1.28,1.28a.4.4,0,0,1-.56,0l-1.28-1.28-1.28,1.28a.4.4,0,0,1-.676-.28V48.394a.4.4,0,0,1,.4-.4h15.6a.4.4,0,0,1,.4.4V68.2a.4.4,0,0,1-.4.4ZM95.555,66.248a.4.4,0,0,1,.28.116l1.28,1.28,1.28-1.28a.4.4,0,0,1,.56,0l1.28,1.28,1.28-1.28a.4.4,0,0,1,.56,0l1.28,1.28,1.28-1.28a.4.4,0,0,1,.56,0l.884.884V48.79H91.271V67.248l.884-.884a.4.4,0,0,1,.56,0l1.28,1.28,1.28-1.28a.4.4,0,0,1,.28-.116Z" transform="translate(-90.478 -47.997)" fill="#a3a0fb"/>
      <path id="Path_365" data-name="Path 365" d="M164.139,301.789h-9.264a.4.4,0,1,1,0-.792h9.264a.4.4,0,0,1,0,.792Z" transform="translate(-151.309 -296.467)" fill="#a3a0fb"/>
      <path id="Path_366" data-name="Path 366" d="M164.139,354.125h-9.264a.4.4,0,1,1,0-.792h9.264a.4.4,0,0,1,0,.792Z" transform="translate(-151.309 -346.211)" fill="#a3a0fb"/>
      <path id="Path_367" data-name="Path 367" d="M164.139,301.789h-9.264a.4.4,0,1,1,0-.792h9.264a.4.4,0,0,1,0,.792Z" transform="translate(-151.309 -291.467)" fill="#a3a0fb"/>
      <path id="Path_368" data-name="Path 368" d="M164.139,354.125h-9.264a.4.4,0,1,1,0-.792h9.264a.4.4,0,0,1,0,.792Z" transform="translate(-151.309 -341.211)" fill="#a3a0fb"/>
    </g>
  </g>
</svg>
