<svg xmlns="http://www.w3.org/2000/svg" width="15.074" height="15" viewBox="0 0 15.074 15">
  <g id="Group_660" data-name="Group 660" transform="translate(9.977 9.928)">
    <path id="Path_400" data-name="Path 400" d="M14.96.135a.307.307,0,0,0-.345-.069L.188,6.283A.326.326,0,0,0,0,6.559a.314.314,0,0,0,.169.289L4.353,9.061a.151.151,0,0,0,.169,0l6.455-5.225a.157.157,0,0,1,.22.22L5.99,10.51a.151.151,0,0,0,0,.169L8.2,14.864a.314.314,0,0,0,.565,0L15.054.48A.307.307,0,0,0,14.96.135Z" transform="translate(-9.977 -9.968)" fill="currentColor"/>
  </g>
</svg>
