<svg xmlns="http://www.w3.org/2000/svg" width="16" height="16" viewBox="0 0 16 16">
  <g id="Group_368" data-name="Group 368" transform="translate(-1864 -429)">
    <g id="Group_369" data-name="Group 369" transform="translate(1874.793 440)">
      <path id="Path_259" data-name="Path 259" d="M6.144,2.5A2.343,2.343,0,0,0,4.169,3.585c.058,0,.115,0,.173,0H12.63a2.7,2.7,0,0,1,2.7,2.7v5.765c0,.058,0,.115,0,.173a2.343,2.343,0,0,0,1.085-1.975V6.284A3.788,3.788,0,0,0,12.63,2.5Zm-1.8,1.8A2.351,2.351,0,0,0,2,6.644v5.405a2.351,2.351,0,0,0,2.342,2.342h.18v1.634a.921.921,0,0,0,1.431.729L9.2,14.391H12.27a2.351,2.351,0,0,0,2.342-2.342V6.644A2.351,2.351,0,0,0,12.27,4.3Zm0,1.081H12.27a1.253,1.253,0,0,1,1.261,1.261v5.405A1.253,1.253,0,0,1,12.27,13.31H9.027a.541.541,0,0,0-.318.1L5.6,15.672V13.851a.541.541,0,0,0-.541-.541H4.342a1.253,1.253,0,0,1-1.261-1.261V6.644a1.3,1.3,0,0,1,.025-.256A1.252,1.252,0,0,1,4.342,5.383Z" transform="translate(-12 -12.5)" fill="currentColor"/>
    </g>
  </g>
</svg>
