<svg xmlns="http://www.w3.org/2000/svg" width="17.1" height="17.1" viewBox="0 0 17.1 17.1">
  <g id="SVGRepo_iconCarrier" transform="translate(-11.4 -11.4)">
    <g id="Group_918" data-name="Group 918">
      <g id="Group_917" data-name="Group 917">
        <g id="Group_916" data-name="Group 916">
          <g id="Group_914" data-name="Group 914">
            <path id="Path_454" data-name="Path 454" d="M20,22.5A2.5,2.5,0,1,1,22.5,20,2.476,2.476,0,0,1,20,22.5Zm0-4A1.5,1.5,0,1,0,21.5,20,1.538,1.538,0,0,0,20,18.5Z" fill="currentColor"/>
          </g>
          <g id="Group_915" data-name="Group 915">
            <path id="Path_455" data-name="Path 455" d="M20.7,28.5H19.4a1.216,1.216,0,0,1-1.2-1.2v-1a6.117,6.117,0,0,1-1.2-.5h-.2l-.7.7a1.352,1.352,0,0,1-1.7,0l-1-1a1.151,1.151,0,0,1,0-1.7l.7-.7a.139.139,0,0,0,0-.2,4.179,4.179,0,0,1-.4-1c0-.1-.1-.1-.2-.1h-.9a1.216,1.216,0,0,1-1.2-1.2V19.3a1.216,1.216,0,0,1,1.2-1.2h.9c.1,0,.1-.1.2-.1a10.375,10.375,0,0,1,.4-1v-.2l-.7-.7a1.151,1.151,0,0,1,0-1.7l1-1a1.352,1.352,0,0,1,1.7,0l.7.7c.1.1.1.1.2,0a4.179,4.179,0,0,1,1-.4c.1,0,.1-.1.1-.2v-.9a1.216,1.216,0,0,1,1.2-1.2h1.3a1.216,1.216,0,0,1,1.2,1.2v.9c0,.1.1.1.1.2.3.1.7.3,1,.4h.2l.7-.7a1.352,1.352,0,0,1,1.7,0l1,1a1.151,1.151,0,0,1,0,1.7l-.7.7a.139.139,0,0,0,0,.2,4.179,4.179,0,0,1,.4,1c0,.1.1.1.2.1h.9a1.216,1.216,0,0,1,1.2,1.2v1.3a1.216,1.216,0,0,1-1.2,1.2h-.9c-.1,0-.1.1-.2.1a10.375,10.375,0,0,1-.4,1v.2l.7.7a1.151,1.151,0,0,1,0,1.7l-1,1a1.352,1.352,0,0,1-1.7,0l-.7-.7c-.1-.1-.1-.1-.2,0a4.179,4.179,0,0,1-1,.4c-.1,0-.1.1-.1.2v.9A1.135,1.135,0,0,1,20.7,28.5Zm-3.8-3.7a1.268,1.268,0,0,1,.6.1,6.943,6.943,0,0,0,1.3.5.664.664,0,0,1,.4.5v1.4a.215.215,0,0,0,.2.2h1.3a.215.215,0,0,0,.2-.2v-.9a1.084,1.084,0,0,1,.8-1.1,3.552,3.552,0,0,0,.9-.4,1.21,1.21,0,0,1,1.4.2l.7.7c.1.1.2.1.2,0l1-1c.1-.1.1-.2,0-.2l-.7-.7a1.21,1.21,0,0,1-.2-1.4c.1-.3.3-.6.4-.9a1.17,1.17,0,0,1,1.1-.8h.9a.215.215,0,0,0,.2-.2V19.3a.215.215,0,0,0-.2-.2h-.9a1.084,1.084,0,0,1-1.1-.8,3.552,3.552,0,0,0-.4-.9,1.21,1.21,0,0,1,.2-1.4l.7-.7c.1-.1.1-.2,0-.2l-1-1c-.1-.1-.2-.1-.2,0l-.7.7a1.4,1.4,0,0,1-1.4.2c-.3-.1-.6-.3-.9-.4a1.17,1.17,0,0,1-.8-1.1v-.9a.215.215,0,0,0-.2-.2H19.4a.215.215,0,0,0-.2.2v.9a1.084,1.084,0,0,1-.8,1.1,3.552,3.552,0,0,0-.9.4,1.21,1.21,0,0,1-1.4-.2l-.7-.7c-.1-.1-.2-.1-.2,0l-1,1c-.1.1-.1.2,0,.2l.7.7a1.21,1.21,0,0,1,.2,1.4c-.1.3-.3.6-.4.9a1.17,1.17,0,0,1-1.1.8h-.9a.215.215,0,0,0-.2.2v1.3a.215.215,0,0,0,.2.2h.9a1.084,1.084,0,0,1,1.1.8,3.552,3.552,0,0,0,.4.9,1.21,1.21,0,0,1-.2,1.4l-.7.7c-.1.1-.1.2,0,.2l1,1c.1.1.2.1.2,0l.7-.7A1.135,1.135,0,0,1,16.9,24.8Z" fill="currentColor"/>
          </g>
        </g>
      </g>
    </g>
  </g>
</svg>
