<svg xmlns="http://www.w3.org/2000/svg" width="47" height="42" viewBox="0 0 47 42">
  <g id="Group_755" data-name="Group 755" transform="translate(-1315 -159)">
    <path id="Path_415" data-name="Path 415" d="M26.375,5.75V18.875H7.944L6.838,19.981,5.75,21.069V5.75H26.375M28.25,2H3.875A1.881,1.881,0,0,0,2,3.875v26.25l7.5-7.5H28.25a1.881,1.881,0,0,0,1.875-1.875V3.875A1.881,1.881,0,0,0,28.25,2Zm9.375,7.5h-3.75V26.375H9.5v3.75A1.881,1.881,0,0,0,11.375,32H32l7.5,7.5V11.375A1.881,1.881,0,0,0,37.625,9.5Z" transform="translate(1313 157)" fill="#0c2639"/>
    <g id="Group_753" data-name="Group 753">
      <g id="Group_405" data-name="Group 405" transform="translate(1343 182)">
        <rect id="Rectangle_85" data-name="Rectangle 85" width="18" height="18" opacity="0"/>
        <g id="Group_400" data-name="Group 400" transform="translate(2.051 2.051)">
          <circle id="Ellipse_3123" data-name="Ellipse 3123" cx="8" cy="8" r="8" transform="translate(-1.051 -1.051)" fill="#fff"/>
          <g id="Ellipse_3124" data-name="Ellipse 3124" transform="translate(-0.051 -0.051)" fill="#fff" stroke="#0c2639" stroke-width="1">
            <circle cx="7" cy="7" r="7" stroke="none"/>
            <circle cx="7" cy="7" r="6.5" fill="none"/>
          </g>
        </g>
        <g id="Group_403" data-name="Group 403">
          <path id="Path_337" data-name="Path 337" d="M19,0V19H0Z" opacity="0"/>
        </g>
      </g>
      <circle id="Ellipse_3125" data-name="Ellipse 3125" cx="4" cy="4" r="4" transform="translate(1348 187)" fill="#40beff"/>
    </g>
  </g>
</svg>
